<mxfile host="app.diagrams.net" modified="2023-11-25T20:31:36.690Z" agent="Mozilla/5.0 (Windows NT 10.0; Win64; x64; rv:109.0) Gecko/20100101 Firefox/119.0" etag="AxLiI8_rxRgnELKKY7wX" version="22.1.3" type="device">
  <diagram name="Page-1" id="m4HbVYhpBsFxY-E0fdw8">
    <mxGraphModel dx="1013" dy="524" grid="1" gridSize="10" guides="1" tooltips="1" connect="1" arrows="1" fold="1" page="1" pageScale="1" pageWidth="850" pageHeight="1100" math="0" shadow="0">
      <root>
        <mxCell id="0" />
        <mxCell id="1" parent="0" />
        <mxCell id="GqpDL0QlQFK2nMcuySfG-4" value="" style="edgeStyle=orthogonalEdgeStyle;rounded=0;orthogonalLoop=1;jettySize=auto;html=1;startArrow=classic;startFill=1;" parent="1" source="GqpDL0QlQFK2nMcuySfG-1" target="GqpDL0QlQFK2nMcuySfG-3" edge="1">
          <mxGeometry relative="1" as="geometry" />
        </mxCell>
        <mxCell id="74W6D5vzAUNJO_zQE1V--12" style="edgeStyle=orthogonalEdgeStyle;rounded=0;orthogonalLoop=1;jettySize=auto;html=1;entryX=0;entryY=0.5;entryDx=0;entryDy=0;" parent="1" source="GqpDL0QlQFK2nMcuySfG-1" target="74W6D5vzAUNJO_zQE1V--7" edge="1">
          <mxGeometry relative="1" as="geometry">
            <Array as="points">
              <mxPoint x="180" y="130" />
            </Array>
          </mxGeometry>
        </mxCell>
        <mxCell id="CMK4vEeK8Xor_b6nnSUB-4" value="" style="edgeStyle=orthogonalEdgeStyle;rounded=0;orthogonalLoop=1;jettySize=auto;html=1;" edge="1" parent="1" source="GqpDL0QlQFK2nMcuySfG-1" target="CMK4vEeK8Xor_b6nnSUB-3">
          <mxGeometry relative="1" as="geometry" />
        </mxCell>
        <mxCell id="GqpDL0QlQFK2nMcuySfG-1" value="&lt;div&gt;Stack Edge Connector&lt;/div&gt;" style="whiteSpace=wrap;html=1;" parent="1" vertex="1">
          <mxGeometry x="120" y="200" width="120" height="60" as="geometry" />
        </mxCell>
        <mxCell id="CMK4vEeK8Xor_b6nnSUB-14" style="edgeStyle=orthogonalEdgeStyle;rounded=0;orthogonalLoop=1;jettySize=auto;html=1;entryX=0.5;entryY=1;entryDx=0;entryDy=0;" edge="1" parent="1" source="GqpDL0QlQFK2nMcuySfG-2" target="CMK4vEeK8Xor_b6nnSUB-11">
          <mxGeometry relative="1" as="geometry" />
        </mxCell>
        <mxCell id="CMK4vEeK8Xor_b6nnSUB-15" style="edgeStyle=orthogonalEdgeStyle;rounded=0;orthogonalLoop=1;jettySize=auto;html=1;exitX=0.75;exitY=0;exitDx=0;exitDy=0;entryX=0.25;entryY=1;entryDx=0;entryDy=0;" edge="1" parent="1" source="GqpDL0QlQFK2nMcuySfG-2" target="CMK4vEeK8Xor_b6nnSUB-8">
          <mxGeometry relative="1" as="geometry">
            <Array as="points">
              <mxPoint x="530" y="80" />
              <mxPoint x="630" y="80" />
            </Array>
          </mxGeometry>
        </mxCell>
        <mxCell id="GqpDL0QlQFK2nMcuySfG-2" value="Processor&lt;br&gt;(STM32F103CBT6)" style="whiteSpace=wrap;html=1;" parent="1" vertex="1">
          <mxGeometry x="440" y="200" width="120" height="60" as="geometry" />
        </mxCell>
        <mxCell id="GqpDL0QlQFK2nMcuySfG-6" value="" style="edgeStyle=orthogonalEdgeStyle;rounded=0;orthogonalLoop=1;jettySize=auto;html=1;startArrow=classic;startFill=1;" parent="1" source="GqpDL0QlQFK2nMcuySfG-3" target="GqpDL0QlQFK2nMcuySfG-2" edge="1">
          <mxGeometry relative="1" as="geometry" />
        </mxCell>
        <mxCell id="GqpDL0QlQFK2nMcuySfG-3" value="CAN Interface (Isolated)" style="whiteSpace=wrap;html=1;" parent="1" vertex="1">
          <mxGeometry x="280" y="200" width="120" height="60" as="geometry" />
        </mxCell>
        <mxCell id="74W6D5vzAUNJO_zQE1V--4" value="" style="edgeStyle=orthogonalEdgeStyle;rounded=0;orthogonalLoop=1;jettySize=auto;html=1;" parent="1" source="GqpDL0QlQFK2nMcuySfG-7" edge="1">
          <mxGeometry relative="1" as="geometry">
            <mxPoint x="280" y="330" as="targetPoint" />
            <Array as="points">
              <mxPoint x="260" y="430" />
              <mxPoint x="260" y="330" />
            </Array>
          </mxGeometry>
        </mxCell>
        <mxCell id="GqpDL0QlQFK2nMcuySfG-7" value="Buck Power Supply" style="whiteSpace=wrap;html=1;" parent="1" vertex="1">
          <mxGeometry x="120" y="400" width="120" height="60" as="geometry" />
        </mxCell>
        <mxCell id="GqpDL0QlQFK2nMcuySfG-9" value="" style="edgeStyle=orthogonalEdgeStyle;rounded=0;orthogonalLoop=1;jettySize=auto;html=1;" parent="1" source="GqpDL0QlQFK2nMcuySfG-8" target="GqpDL0QlQFK2nMcuySfG-2" edge="1">
          <mxGeometry relative="1" as="geometry" />
        </mxCell>
        <mxCell id="GqpDL0QlQFK2nMcuySfG-8" value="&lt;div&gt;Current Monitoring IC&lt;br&gt;&lt;/div&gt;" style="whiteSpace=wrap;html=1;" parent="1" vertex="1">
          <mxGeometry x="440" y="300" width="120" height="60" as="geometry" />
        </mxCell>
        <mxCell id="74W6D5vzAUNJO_zQE1V--6" value="" style="edgeStyle=orthogonalEdgeStyle;rounded=0;orthogonalLoop=1;jettySize=auto;html=1;" parent="1" target="GqpDL0QlQFK2nMcuySfG-8" edge="1">
          <mxGeometry relative="1" as="geometry">
            <mxPoint x="400" y="330" as="sourcePoint" />
          </mxGeometry>
        </mxCell>
        <mxCell id="GqpDL0QlQFK2nMcuySfG-17" value="" style="edgeStyle=orthogonalEdgeStyle;rounded=0;orthogonalLoop=1;jettySize=auto;html=1;" parent="1" source="GqpDL0QlQFK2nMcuySfG-15" target="GqpDL0QlQFK2nMcuySfG-2" edge="1">
          <mxGeometry relative="1" as="geometry">
            <Array as="points">
              <mxPoint x="600" y="430" />
              <mxPoint x="600" y="280" />
              <mxPoint x="500" y="280" />
            </Array>
          </mxGeometry>
        </mxCell>
        <mxCell id="74W6D5vzAUNJO_zQE1V--2" value="" style="edgeStyle=orthogonalEdgeStyle;rounded=0;orthogonalLoop=1;jettySize=auto;html=1;" parent="1" source="GqpDL0QlQFK2nMcuySfG-15" target="74W6D5vzAUNJO_zQE1V--1" edge="1">
          <mxGeometry relative="1" as="geometry" />
        </mxCell>
        <mxCell id="GqpDL0QlQFK2nMcuySfG-15" value="USB Connector" style="whiteSpace=wrap;html=1;" parent="1" vertex="1">
          <mxGeometry x="440" y="400" width="120" height="60" as="geometry" />
        </mxCell>
        <mxCell id="GqpDL0QlQFK2nMcuySfG-19" value="" style="edgeStyle=orthogonalEdgeStyle;rounded=0;orthogonalLoop=1;jettySize=auto;html=1;" parent="1" source="GqpDL0QlQFK2nMcuySfG-18" target="GqpDL0QlQFK2nMcuySfG-2" edge="1">
          <mxGeometry relative="1" as="geometry" />
        </mxCell>
        <mxCell id="CMK4vEeK8Xor_b6nnSUB-2" style="edgeStyle=orthogonalEdgeStyle;rounded=0;orthogonalLoop=1;jettySize=auto;html=1;entryX=0.75;entryY=1;entryDx=0;entryDy=0;" edge="1" parent="1" source="GqpDL0QlQFK2nMcuySfG-18" target="CMK4vEeK8Xor_b6nnSUB-1">
          <mxGeometry relative="1" as="geometry">
            <mxPoint x="740" y="470" as="targetPoint" />
            <Array as="points">
              <mxPoint x="670" y="380" />
              <mxPoint x="370" y="380" />
            </Array>
          </mxGeometry>
        </mxCell>
        <mxCell id="GqpDL0QlQFK2nMcuySfG-18" value="&lt;div&gt;SWD Header&lt;/div&gt;" style="whiteSpace=wrap;html=1;" parent="1" vertex="1">
          <mxGeometry x="600" y="200" width="120" height="60" as="geometry" />
        </mxCell>
        <mxCell id="74W6D5vzAUNJO_zQE1V--15" style="edgeStyle=orthogonalEdgeStyle;rounded=0;orthogonalLoop=1;jettySize=auto;html=1;entryX=0.89;entryY=-0.012;entryDx=0;entryDy=0;entryPerimeter=0;" parent="1" source="GqpDL0QlQFK2nMcuySfG-20" target="GqpDL0QlQFK2nMcuySfG-2" edge="1">
          <mxGeometry relative="1" as="geometry" />
        </mxCell>
        <mxCell id="GqpDL0QlQFK2nMcuySfG-20" value="Crystal Oscillator" style="whiteSpace=wrap;html=1;" parent="1" vertex="1">
          <mxGeometry x="600" y="100" width="120" height="60" as="geometry" />
        </mxCell>
        <mxCell id="74W6D5vzAUNJO_zQE1V--11" value="" style="edgeStyle=orthogonalEdgeStyle;rounded=0;orthogonalLoop=1;jettySize=auto;html=1;" parent="1" source="74W6D5vzAUNJO_zQE1V--1" edge="1">
          <mxGeometry relative="1" as="geometry">
            <mxPoint x="340" y="360" as="targetPoint" />
          </mxGeometry>
        </mxCell>
        <mxCell id="74W6D5vzAUNJO_zQE1V--1" value="Linear Regulator" style="whiteSpace=wrap;html=1;" parent="1" vertex="1">
          <mxGeometry x="280" y="400" width="120" height="60" as="geometry" />
        </mxCell>
        <mxCell id="74W6D5vzAUNJO_zQE1V--14" style="edgeStyle=orthogonalEdgeStyle;rounded=0;orthogonalLoop=1;jettySize=auto;html=1;entryX=0.134;entryY=-0.012;entryDx=0;entryDy=0;entryPerimeter=0;" parent="1" source="74W6D5vzAUNJO_zQE1V--7" target="GqpDL0QlQFK2nMcuySfG-2" edge="1">
          <mxGeometry relative="1" as="geometry" />
        </mxCell>
        <mxCell id="74W6D5vzAUNJO_zQE1V--7" value="&lt;div&gt;Voltage Divider (Battery Measurement)&lt;br&gt;&lt;/div&gt;" style="whiteSpace=wrap;html=1;" parent="1" vertex="1">
          <mxGeometry x="280" y="100" width="120" height="60" as="geometry" />
        </mxCell>
        <mxCell id="CMK4vEeK8Xor_b6nnSUB-1" value="3x Ideal Diode" style="whiteSpace=wrap;html=1;" vertex="1" parent="1">
          <mxGeometry x="280" y="300" width="120" height="60" as="geometry" />
        </mxCell>
        <mxCell id="CMK4vEeK8Xor_b6nnSUB-5" value="" style="edgeStyle=orthogonalEdgeStyle;rounded=0;orthogonalLoop=1;jettySize=auto;html=1;" edge="1" parent="1" source="CMK4vEeK8Xor_b6nnSUB-3" target="GqpDL0QlQFK2nMcuySfG-7">
          <mxGeometry relative="1" as="geometry" />
        </mxCell>
        <mxCell id="CMK4vEeK8Xor_b6nnSUB-3" value="Reverse Polarity Protection" style="whiteSpace=wrap;html=1;" vertex="1" parent="1">
          <mxGeometry x="120" y="300" width="120" height="60" as="geometry" />
        </mxCell>
        <mxCell id="CMK4vEeK8Xor_b6nnSUB-9" style="edgeStyle=orthogonalEdgeStyle;rounded=0;orthogonalLoop=1;jettySize=auto;html=1;exitX=0.75;exitY=1;exitDx=0;exitDy=0;entryX=0.25;entryY=0;entryDx=0;entryDy=0;" edge="1" parent="1" source="CMK4vEeK8Xor_b6nnSUB-7" target="GqpDL0QlQFK2nMcuySfG-2">
          <mxGeometry relative="1" as="geometry">
            <Array as="points">
              <mxPoint x="370" y="80" />
              <mxPoint x="470" y="80" />
            </Array>
          </mxGeometry>
        </mxCell>
        <mxCell id="CMK4vEeK8Xor_b6nnSUB-7" value="SAM-M10Q GPS" style="whiteSpace=wrap;html=1;" vertex="1" parent="1">
          <mxGeometry x="280" width="120" height="60" as="geometry" />
        </mxCell>
        <mxCell id="CMK4vEeK8Xor_b6nnSUB-8" value="Flash Module" style="whiteSpace=wrap;html=1;" vertex="1" parent="1">
          <mxGeometry x="600" width="120" height="60" as="geometry" />
        </mxCell>
        <mxCell id="CMK4vEeK8Xor_b6nnSUB-11" value="Buzzer" style="whiteSpace=wrap;html=1;" vertex="1" parent="1">
          <mxGeometry x="440" width="120" height="60" as="geometry" />
        </mxCell>
      </root>
    </mxGraphModel>
  </diagram>
</mxfile>
